<svg width="48" height="48" viewBox="0 0 48 48" fill="none" xmlns="http://www.w3.org/2000/svg">
  <rect x="5" y="6" width="38" height="38" rx="13" fill="#063E9E" opacity="0.22"/>
  <rect x="4" y="3.5" width="40" height="40" rx="13" fill="url(#tileGradient)"/>
  <path d="M9.2 10.2C12.8 6.8 17.9 5 24.2 5H36C39.3 5 42 7.7 42 11V17.6C36.2 14.1 29.4 11.9 22.6 11.1C17.9 10.5 13.3 10.4 9.2 10.2Z" fill="white" opacity="0.18"/>
  <path d="M13 16.7C13 14.7 14.7 13 16.7 13H29.6C31.5 13 33.2 14.4 33.6 16.2L38.8 13.5C40.1 12.8 41.6 13.8 41.6 15.2V32.8C41.6 34.2 40.1 35.2 38.8 34.5L33.6 31.8C33.2 33.6 31.5 35 29.6 35H16.7C14.7 35 13 33.3 13 31.3V16.7Z" fill="white" opacity="0.96"/>
  <rect x="16.1" y="16.2" width="15.2" height="15.6" rx="4.4" fill="url(#cameraGradient)"/>
  <path d="M34.2 20.5L38.4 18.2V29.8L34.2 27.5V20.5Z" fill="#EAF5FF"/>
  <circle cx="23.7" cy="24" r="6.9" fill="white" opacity="0.85"/>
  <circle cx="23.7" cy="24" r="5.6" fill="url(#recordGradient)"/>
  <circle cx="21.5" cy="21.9" r="1.4" fill="white" opacity="0.62"/>
  <path d="M14.2 18.8V16.9C14.2 15.4 15.4 14.2 16.9 14.2H19" stroke="#BFE4FF" stroke-width="1.6" stroke-linecap="round" opacity="0.95"/>
  <path d="M32.7 29.2V31.1C32.7 32.6 31.5 33.8 30 33.8H27.9" stroke="#A9D9FF" stroke-width="1.6" stroke-linecap="round" opacity="0.8"/>
  <defs>
    <linearGradient id="tileGradient" x1="8" y1="5" x2="41" y2="43" gradientUnits="userSpaceOnUse">
      <stop stop-color="#A7E4FF"/>
      <stop offset="0.32" stop-color="#359BFF"/>
      <stop offset="0.68" stop-color="#0967F2"/>
      <stop offset="1" stop-color="#054CC4"/>
    </linearGradient>
    <linearGradient id="cameraGradient" x1="18" y1="16" x2="30" y2="32" gradientUnits="userSpaceOnUse">
      <stop stop-color="#F8FCFF"/>
      <stop offset="1" stop-color="#DCEEFF"/>
    </linearGradient>
    <radialGradient id="recordGradient" cx="0" cy="0" r="1" gradientUnits="userSpaceOnUse" gradientTransform="translate(21.5 21.8) rotate(49.4) scale(9.1)">
      <stop stop-color="#FF7D86"/>
      <stop offset="0.55" stop-color="#EF3348"/>
      <stop offset="1" stop-color="#C91F36"/>
    </radialGradient>
  </defs>
</svg>
