<svg width="32" height="32" viewBox="0 0 32 32" fill="none" xmlns="http://www.w3.org/2000/svg">
  <path d="M13.9 4.5H18.1L19 8.1C19.7 8.35 20.35 8.63 20.95 8.95L24.1 7.05L27.05 10L25.15 13.15C25.47 13.77 25.75 14.42 25.98 15.1L29.5 16V20L25.98 20.9C25.73 21.58 25.45 22.23 25.12 22.85L27.05 26L24.1 28.95L20.95 27.05C20.33 27.37 19.68 27.65 19 27.9L18.1 31.5H13.9L13 27.9C12.32 27.65 11.67 27.37 11.05 27.05L7.9 28.95L4.95 26L6.88 22.85C6.55 22.23 6.27 21.58 6.02 20.9L2.5 20V16L6.02 15.1C6.25 14.42 6.53 13.77 6.85 13.15L4.95 10L7.9 7.05L11.05 8.95C11.65 8.63 12.3 8.35 13 8.1L13.9 4.5Z" fill="none" stroke="currentColor" stroke-width="2.2" stroke-linejoin="round"/>
  <circle cx="16" cy="18" r="4.2" fill="none" stroke="currentColor" stroke-width="2.2"/>
</svg>
